<svg xmlns="http://www.w3.org/2000/svg" width="20" height="20" viewBox="0 0 20 20" fill="none">
  <g clip-path="url(#clip0_16488_44021)">
    <path d="M10.5576 1.5L10.5581 0.75H10.5576V1.5ZM11.0205 1.87988L10.2851 2.02697L10.2851 2.02705L11.0205 1.87988ZM11.374 3.64648L10.6386 3.79365L10.7352 4.27613L11.2162 4.37969L11.374 3.64648ZM13.5195 4.53613L13.1128 5.16625L13.526 5.43302L13.9354 5.1603L13.5195 4.53613ZM15.0205 3.53613L14.6047 2.91193L14.6047 2.91197L15.0205 3.53613ZM15.6162 3.5957L15.0859 4.12603V4.12603L15.6162 3.5957ZM16.4043 4.38379L16.9347 3.85354L16.9346 3.85346L16.4043 4.38379ZM16.4639 4.97949L17.0877 5.3958L17.088 5.39533L16.4639 4.97949ZM15.4629 6.47949L14.839 6.06319L14.5658 6.47272L14.8328 6.88633L15.4629 6.47949ZM16.3525 8.625L15.6194 8.78291L15.7229 9.26366L16.2051 9.36036L16.3525 8.625ZM18.1201 8.97949L17.9726 9.71485L17.973 9.71493L18.1201 8.97949ZM18.5 9.44238H19.25V9.44225L18.5 9.44238ZM18.5 10.5566H19.25V10.5566H18.5ZM18.1201 11.0205L18.2668 11.756L18.2672 11.7559L18.1201 11.0205ZM16.3525 11.373L16.2058 10.6375L15.7229 10.7339L15.6193 11.2153L16.3525 11.373ZM15.4619 13.5195L14.8319 13.1127L14.5647 13.5264L14.8381 13.9359L15.4619 13.5195ZM16.4639 15.0205L17.0879 14.6045L17.0877 14.6041L16.4639 15.0205ZM15.6162 16.4053L16.1462 16.9359L16.1465 16.9356L15.6162 16.4053ZM15.0205 16.4639L14.6046 17.088L14.6046 17.088L15.0205 16.4639ZM13.5186 15.4629L13.9345 14.8388L13.5251 14.566L13.1118 14.8327L13.5186 15.4629ZM11.374 16.3525L11.2162 15.6193L10.7351 15.7229L10.6386 16.2055L11.374 16.3525ZM11.0205 18.1201L10.2851 17.973V17.973L11.0205 18.1201ZM10.5576 18.5V19.25H10.5581L10.5576 18.5ZM9.44238 18.5L9.44191 19.25H9.44238V18.5ZM8.97949 18.1201L9.71493 17.973L9.71485 17.9726L8.97949 18.1201ZM8.625 16.3525L9.36036 16.2051L9.26366 15.7229L8.78294 15.6194L8.625 16.3525ZM6.47949 15.4629L6.88633 14.8328L6.47272 14.5658L6.06319 14.839L6.47949 15.4629ZM4.97949 16.4639L5.39526 17.0881L5.3958 17.0877L4.97949 16.4639ZM4.38379 16.4043L4.91412 15.874V15.874L4.38379 16.4043ZM3.5957 15.6162L3.06529 16.1465L3.06537 16.1465L3.5957 15.6162ZM3.53613 15.0205L2.91197 14.6047L2.91197 14.6047L3.53613 15.0205ZM4.53613 13.5195L5.1603 13.9354L5.43302 13.526L5.16624 13.1128L4.53613 13.5195ZM3.64648 11.373L4.37971 11.2153L4.27614 10.7339L3.79326 10.6375L3.64648 11.373ZM1.87988 11.0205L1.7328 11.7559L1.73311 11.756L1.87988 11.0205ZM1.5 10.5566H2.25V10.5566H1.5ZM1.5 9.44238L0.75 9.44225V9.44238H1.5ZM1.87988 8.97949L2.02697 9.71493L2.02713 9.7149L1.87988 8.97949ZM3.64551 8.62598L3.79275 9.36138L4.27521 9.26478L4.37872 8.78376L3.64551 8.62598ZM4.53613 6.47949L5.16621 6.88631L5.43313 6.47291L5.16017 6.06347L4.53613 6.47949ZM3.53613 4.97949L4.16017 4.56347V4.56347L3.53613 4.97949ZM4.38379 3.59473L3.85376 3.0641L3.85346 3.0644L4.38379 3.59473ZM4.97949 3.53613L5.39552 2.9121L5.39541 2.91202L4.97949 3.53613ZM6.47949 4.53613L6.06347 5.16017L6.4729 5.43313L6.8863 5.16622L6.47949 4.53613ZM8.62598 3.64551L8.78377 4.37872L9.26478 4.2752L9.36138 3.79275L8.62598 3.64551ZM8.97949 1.87988L9.7149 2.02713L9.71493 2.02697L8.97949 1.87988ZM9.44238 1.5V0.75L9.44191 0.75L9.44238 1.5ZM10 7L10.0001 6.25H9.99998L10 7ZM7 10L6.25 9.99998V10.0001L7 10ZM10 13L9.99998 13.75H10.0001L10 13ZM13 10L13.75 10.0001V9.99998L13 10ZM10.5576 1.5L10.5571 2.25C10.4244 2.24992 10.311 2.15639 10.2851 2.02697L11.0205 1.87988L11.7559 1.7328C11.6418 1.16211 11.1407 0.750368 10.5581 0.75L10.5576 1.5ZM11.0205 1.87988L10.2851 2.02705L10.6386 3.79365L11.374 3.64648L12.1094 3.49932L11.7559 1.73272L11.0205 1.87988ZM11.374 3.64648L11.2162 4.37969C11.9015 4.52722 12.5412 4.7973 13.1128 5.16625L13.5195 4.53613L13.9263 3.90602C13.2062 3.44119 12.3984 3.09982 11.5319 2.91328L11.374 3.64648ZM13.5195 4.53613L13.9354 5.1603L15.4363 4.1603L15.0205 3.53613L14.6047 2.91197L13.1037 3.91197L13.5195 4.53613ZM15.0205 3.53613L15.4363 4.16034C15.325 4.23449 15.1785 4.21865 15.0859 4.12603L15.6162 3.5957L16.1465 3.06537C15.7357 2.65451 15.0906 2.58829 14.6047 2.91193L15.0205 3.53613ZM15.6162 3.5957L15.0859 4.12603L15.874 4.91412L16.4043 4.38379L16.9346 3.85346L16.1465 3.06537L15.6162 3.5957ZM16.4043 4.38379L15.8739 4.91404C15.7815 4.82158 15.7654 4.67516 15.8397 4.56366L16.4639 4.97949L17.088 5.39533C17.4118 4.9093 17.3453 4.26427 16.9347 3.85354L16.4043 4.38379ZM16.4639 4.97949L15.84 4.56319L14.839 6.06319L15.4629 6.47949L16.0867 6.8958L17.0877 5.3958L16.4639 4.97949ZM15.4629 6.47949L14.8328 6.88633C15.2018 7.4577 15.4717 8.09744 15.6194 8.78291L16.3525 8.625L17.0857 8.46709C16.8991 7.60074 16.558 6.79283 16.093 6.07265L15.4629 6.47949ZM16.3525 8.625L16.2051 9.36036L17.9726 9.71485L18.1201 8.97949L18.2676 8.24413L16.5 7.88964L16.3525 8.625ZM18.1201 8.97949L17.973 9.71493C17.844 9.68912 17.75 9.57569 17.75 9.44252L18.5 9.44238L19.25 9.44225C19.2499 8.85895 18.8377 8.35815 18.2672 8.24406L18.1201 8.97949ZM18.5 9.44238H17.75V10.5566H18.5H19.25V9.44238H18.5ZM18.5 10.5566H17.75C17.75 10.4252 17.8423 10.3112 17.973 10.2851L18.1201 11.0205L18.2672 11.7559C18.8394 11.6415 19.25 11.1383 19.25 10.5566H18.5ZM18.1201 11.0205L17.9734 10.285L16.2058 10.6375L16.3525 11.373L16.4992 12.1086L18.2668 11.756L18.1201 11.0205ZM16.3525 11.373L15.6193 11.2153C15.4718 11.9008 15.2013 12.5405 14.8319 13.1127L15.4619 13.5195L16.092 13.9264C16.557 13.2062 16.8991 12.3983 17.0858 11.5308L16.3525 11.373ZM15.4619 13.5195L14.8381 13.9359L15.8401 15.4369L16.4639 15.0205L17.0877 14.6041L16.0857 13.1031L15.4619 13.5195ZM16.4639 15.0205L15.8398 15.4365C15.7656 15.3251 15.7814 15.1794 15.874 15.0869L16.4043 15.6172L16.9346 16.1475C17.3456 15.7366 17.4119 15.0905 17.0879 14.6045L16.4639 15.0205ZM16.4043 15.6172L15.874 15.0869L15.0859 15.8749L15.6162 16.4053L16.1465 16.9356L16.9346 16.1475L16.4043 15.6172ZM15.6162 16.4053L15.0862 15.8746C15.1804 15.7805 15.327 15.7668 15.4364 15.8398L15.0205 16.4639L14.6046 17.088C15.0885 17.4104 15.7337 17.348 16.1462 16.9359L15.6162 16.4053ZM15.0205 16.4639L15.4364 15.8398L13.9345 14.8388L13.5186 15.4629L13.1026 16.087L14.6046 17.088L15.0205 16.4639ZM13.5186 15.4629L13.1118 14.8327C12.5402 15.2017 11.901 15.4719 11.2162 15.6193L11.374 16.3525L11.5319 17.0857C12.3984 16.8992 13.2056 16.5575 13.9253 16.093L13.5186 15.4629ZM11.374 16.3525L10.6386 16.2055L10.2851 17.973L11.0205 18.1201L11.7559 18.2672L12.1095 16.4996L11.374 16.3525ZM11.0205 18.1201L10.2851 17.973C10.311 17.8436 10.4244 17.7501 10.5571 17.75L10.5576 18.5L10.5581 19.25C11.1407 19.2496 11.6418 18.8379 11.7559 18.2672L11.0205 18.1201ZM10.5576 18.5V17.75H9.44238V18.5V19.25H10.5576V18.5ZM9.44238 18.5L9.44286 17.75C9.57556 17.7501 9.68904 17.8436 9.71493 17.973L8.97949 18.1201L8.24406 18.2672C8.35819 18.8379 8.85926 19.2496 9.44191 19.25L9.44238 18.5ZM8.97949 18.1201L9.71485 17.9726L9.36036 16.2051L8.625 16.3525L7.88964 16.5L8.24413 18.2676L8.97949 18.1201ZM8.625 16.3525L8.78294 15.6194C8.09745 15.4717 7.45768 15.2018 6.88633 14.8328L6.47949 15.4629L6.07265 16.093C6.79284 16.558 7.60077 16.8991 8.46706 17.0857L8.625 16.3525ZM6.47949 15.4629L6.06319 14.839L4.56319 15.84L4.97949 16.4639L5.3958 17.0877L6.8958 16.0867L6.47949 15.4629ZM4.97949 16.4639L4.56372 15.8397C4.67505 15.7655 4.8215 15.7814 4.91412 15.874L4.38379 16.4043L3.85346 16.9346C4.26432 17.3455 4.90939 17.4117 5.39526 17.0881L4.97949 16.4639ZM4.38379 16.4043L4.91412 15.874L4.12603 15.0859L3.5957 15.6162L3.06537 16.1465L3.85346 16.9346L4.38379 16.4043ZM3.5957 15.6162L4.12611 15.086C4.21854 15.1784 4.23459 15.3248 4.1603 15.4363L3.53613 15.0205L2.91197 14.6047C2.58816 15.0907 2.65468 15.7357 3.06529 16.1465L3.5957 15.6162ZM3.53613 15.0205L4.1603 15.4363L5.1603 13.9354L4.53613 13.5195L3.91197 13.1037L2.91197 14.6047L3.53613 15.0205ZM4.53613 13.5195L5.16624 13.1128C4.79722 12.5411 4.52724 11.9011 4.37971 11.2153L3.64648 11.373L2.91326 11.5308C3.09972 12.3975 3.44091 13.2058 3.90603 13.9263L4.53613 13.5195ZM3.64648 11.373L3.79326 10.6375L2.02666 10.285L1.87988 11.0205L1.73311 11.756L3.49971 12.1085L3.64648 11.373ZM1.87988 11.0205L2.02697 10.2851C2.15773 10.3112 2.25 10.4252 2.25 10.5566H1.5H0.75C0.75 11.1383 1.16058 11.6415 1.7328 11.7559L1.87988 11.0205ZM1.5 10.5566H2.25V9.44238H1.5H0.75V10.5566H1.5ZM1.5 9.44238L2.25 9.44252C2.24998 9.57569 2.15602 9.68912 2.02697 9.71493L1.87988 8.97949L1.7328 8.24406C1.16234 8.35815 0.750104 8.85895 0.75 9.44225L1.5 9.44238ZM1.87988 8.97949L2.02713 9.7149L3.79275 9.36138L3.64551 8.62598L3.49826 7.89057L1.73264 8.24409L1.87988 8.97949ZM3.64551 8.62598L4.37872 8.78376C4.5262 8.09845 4.79686 7.45835 5.16621 6.88631L4.53613 6.47949L3.90606 6.07267C3.44113 6.79273 3.09891 7.60096 2.91229 8.46819L3.64551 8.62598ZM4.53613 6.47949L5.16017 6.06347L4.16017 4.56347L3.53613 4.97949L2.9121 5.39552L3.9121 6.89552L4.53613 6.47949ZM3.53613 4.97949L4.16017 4.56347C4.23444 4.67487 4.21862 4.82056 4.12603 4.91314L3.5957 4.38281L3.06537 3.85248C2.65445 4.26341 2.5881 4.90953 2.9121 5.39552L3.53613 4.97949ZM3.5957 4.38281L4.12603 4.91314L4.91412 4.12506L4.38379 3.59473L3.85346 3.0644L3.06537 3.85248L3.5957 4.38281ZM4.38379 3.59473L4.91382 4.12536C4.81961 4.21946 4.67302 4.23318 4.56357 4.16024L4.97949 3.53613L5.39541 2.91202C4.91155 2.58957 4.26629 2.65204 3.85376 3.0641L4.38379 3.59473ZM4.97949 3.53613L4.56347 4.16017L6.06347 5.16017L6.47949 4.53613L6.89552 3.9121L5.39552 2.9121L4.97949 3.53613ZM6.47949 4.53613L6.8863 5.16622C7.45835 4.79687 8.09847 4.5262 8.78377 4.37872L8.62598 3.64551L8.46818 2.91229C7.60097 3.09893 6.79274 3.44115 6.07268 3.90605L6.47949 4.53613ZM8.62598 3.64551L9.36138 3.79275L9.7149 2.02713L8.97949 1.87988L8.24409 1.73264L7.89057 3.49826L8.62598 3.64551ZM8.97949 1.87988L9.71493 2.02697C9.68904 2.15639 9.57557 2.24992 9.44286 2.25L9.44238 1.5L9.44191 0.75C8.85926 0.750368 8.35819 1.16211 8.24406 1.7328L8.97949 1.87988ZM9.44238 1.5V2.25H10.5576V1.5V0.75H9.44238V1.5ZM10 7L9.99998 6.25C7.929 6.25006 6.25006 7.929 6.25 9.99998L7 10L7.75 10C7.75004 8.75744 8.75744 7.75004 10 7.75L10 7ZM7 10L6.25 10.0001C6.25015 12.0709 7.92901 13.7499 9.99998 13.75L10 13L10 12.25C8.75751 12.25 7.75009 11.2425 7.75 9.99995L7 10ZM10 13L10.0001 13.75C12.0709 13.7499 13.7499 12.0709 13.75 10.0001L13 10L12.25 9.99995C12.2499 11.2425 11.2425 12.2499 9.99995 12.25L10 13ZM13 10L13.75 9.99998C13.7499 7.92901 12.0709 6.25015 10.0001 6.25L10 7L9.99995 7.75C11.2425 7.75009 12.25 8.75751 12.25 10L13 10Z" fill="#5C666A"/>
  </g>
  <defs>
    <clipPath id="clip0_16488_44021">
      <rect width="20" height="20" fill="white"/>
    </clipPath>
  </defs>
</svg>